<?xml version="1.0" standalone="no"?>
<!DOCTYPE svg PUBLIC "-//W3C//DTD SVG 20010904//EN"
 "http://www.w3.org/TR/2001/REC-SVG-20010904/DTD/svg10.dtd">
<svg version="1.0" xmlns="http://www.w3.org/2000/svg"
 width="704.000000pt" height="704.000000pt" viewBox="0 0 704.000000 704.000000"
 preserveAspectRatio="xMidYMid meet">
<metadata>
Created by potrace 1.11, written by Peter Selinger 2001-2013
</metadata>
<g transform="translate(0.000000,704.000000) scale(0.100000,-0.100000)"
fill="#000000" stroke="none">
<path d="M3356 6523 c-1 -2 -27 -5 -57 -7 -54 -5 -137 -15 -174 -22 -11 -2
-42 -6 -70 -10 -27 -3 -52 -7 -55 -9 -4 -2 -22 -7 -41 -10 -19 -3 -42 -8 -51
-11 -16 -5 -38 -10 -85 -20 -12 -2 -34 -9 -48 -14 -14 -5 -25 -7 -25 -4 0 4
-6 2 -13 -4 -7 -6 -24 -13 -37 -16 -35 -6 -183 -57 -195 -66 -5 -4 -28 -13
-50 -20 -22 -7 -70 -27 -107 -46 -36 -18 -69 -30 -72 -27 -3 4 -6 1 -6 -5 0
-7 -5 -12 -11 -12 -17 0 -202 -105 -311 -177 -82 -54 -255 -182 -308 -229 -64
-57 -277 -271 -321 -324 -30 -36 -56 -67 -59 -70 -9 -9 -115 -153 -147 -200
-146 -217 -259 -444 -348 -698 -24 -71 -79 -269 -89 -322 -2 -14 -9 -45 -14
-70 -6 -25 -13 -65 -16 -90 -3 -25 -8 -54 -10 -66 -2 -12 -8 -57 -12 -100 -3
-43 -8 -92 -10 -109 -5 -46 -4 -322 1 -395 9 -129 16 -190 31 -272 3 -18 7
-42 8 -53 2 -11 6 -33 10 -50 3 -16 8 -40 11 -53 2 -13 6 -31 9 -40 3 -9 7
-28 10 -42 9 -43 14 -63 36 -135 13 -38 23 -74 25 -80 2 -11 12 -38 25 -70 4
-11 13 -36 20 -55 15 -43 19 -54 70 -163 22 -49 40 -92 40 -97 0 -4 7 -13 15
-20 9 -7 13 -15 10 -18 -3 -3 1 -15 8 -26 8 -12 29 -48 47 -81 46 -83 160
-259 171 -263 5 -2 9 -8 9 -13 0 -9 132 -175 188 -238 118 -129 243 -247 367
-346 108 -86 249 -185 264 -185 6 0 11 -4 11 -10 0 -5 5 -10 12 -10 6 0 19 -6
27 -14 38 -33 285 -158 417 -211 84 -34 296 -106 324 -110 8 -1 22 -5 30 -8
15 -5 97 -25 135 -33 85 -17 125 -24 155 -28 19 -3 44 -7 55 -10 141 -28 671
-29 815 -1 13 3 42 7 65 10 69 10 93 15 162 31 120 28 135 32 218 57 39 11 75
22 80 23 26 7 152 55 167 64 10 5 22 10 27 10 5 0 42 15 82 34 41 18 78 33 83
34 5 0 12 4 15 9 3 4 29 19 56 32 28 14 79 42 114 63 34 21 65 38 67 38 8 0
229 152 274 189 25 20 53 43 64 51 130 105 321 300 437 446 81 101 229 313
229 327 0 3 17 34 38 68 36 60 95 177 140 279 51 116 142 387 158 475 8 42 12
60 14 60 1 0 3 9 5 20 1 11 5 34 9 50 3 17 11 62 17 100 6 39 12 81 15 95 17
103 24 516 10 640 -17 150 -20 172 -32 235 -3 17 -7 44 -10 60 -2 17 -11 57
-19 90 -8 33 -19 80 -25 105 -14 60 -100 322 -110 335 -4 6 -11 21 -15 35 -9
30 -121 261 -168 345 -65 117 -196 303 -310 443 -28 34 -304 310 -338 338 -14
12 -57 45 -95 74 -38 30 -70 57 -72 62 -2 4 -7 8 -12 8 -4 0 -51 29 -103 65
-52 36 -100 65 -106 65 -6 0 -11 3 -11 8 0 4 -10 12 -23 18 -12 5 -60 31 -107
56 -47 25 -128 65 -180 88 -52 23 -104 45 -115 50 -49 22 -308 106 -354 115
-9 1 -36 8 -61 15 -25 7 -60 14 -79 16 -19 3 -37 7 -41 9 -4 3 -29 7 -56 10
-26 4 -50 8 -54 10 -3 2 -41 7 -85 10 -44 4 -93 10 -110 12 -35 5 -464 11
-469 6z m469 -487 c33 -4 103 -14 155 -22 118 -20 127 -22 150 -29 10 -3 27
-7 37 -9 177 -34 534 -183 691 -287 24 -16 45 -29 47 -29 13 0 246 -174 295
-220 15 -14 51 -48 81 -76 137 -128 286 -310 384 -469 27 -44 53 -83 58 -86 4
-3 9 -12 10 -20 2 -8 6 -19 10 -26 66 -106 207 -453 207 -510 0 -11 4 -23 8
-28 8 -9 13 -30 38 -145 12 -59 34 -201 41 -270 14 -140 6 -499 -13 -593 -2
-12 -7 -40 -9 -62 -3 -22 -8 -47 -10 -55 -2 -8 -7 -31 -11 -50 -7 -40 -12 -63
-14 -70 -1 -3 -2 -8 -1 -12 0 -4 -4 -20 -10 -35 -6 -15 -13 -38 -15 -50 -7
-37 -69 -213 -103 -293 -56 -132 -227 -434 -261 -460 -3 -3 -13 -15 -21 -27
l-15 -22 -25 23 c-112 107 -819 828 -819 836 0 5 10 10 21 10 52 0 258 116
272 153 6 16 -52 135 -87 182 -51 66 -119 127 -181 163 -103 60 -99 59 -173
33 -93 -33 -145 -65 -191 -118 l-40 -45 -25 19 c-32 23 -39 40 -23 59 43 53
100 99 151 123 32 16 54 31 50 34 -42 25 -198 47 -351 49 l-92 2 -111 112
c-95 97 -116 126 -75 103 51 -29 52 -8 1 31 -81 62 -370 315 -434 380 -24 25
-214 217 -423 427 -339 341 -436 443 -351 369 15 -13 79 -68 142 -122 63 -54
120 -102 126 -108 7 -6 26 -22 44 -36 18 -14 40 -32 49 -41 9 -8 43 -37 76
-65 33 -27 62 -51 65 -54 3 -3 48 -41 100 -85 52 -44 100 -84 106 -90 6 -5 33
-28 59 -50 27 -22 81 -67 119 -100 39 -33 82 -69 94 -80 13 -11 36 -30 50 -43
15 -13 59 -49 97 -80 39 -31 77 -64 85 -72 8 -8 40 -35 70 -60 30 -25 57 -47
60 -50 21 -21 62 -53 58 -45 -3 6 -22 46 -43 90 -39 82 -162 292 -219 374 -18
25 -54 78 -81 116 -60 87 -271 362 -295 385 -3 3 -28 32 -55 65 -28 33 -61 73
-75 89 -39 47 -181 188 -225 224 -138 114 -350 228 -477 258 -51 12 -66 15
-98 19 -65 9 -177 7 -220 -5 l-42 -11 -58 53 c-32 29 -58 56 -59 60 0 4 25 25
57 47 31 22 62 45 69 51 7 5 15 10 19 10 3 0 26 13 50 29 39 27 238 127 324
164 113 49 389 131 475 142 11 1 34 5 50 9 31 7 70 11 185 22 36 3 66 7 67 8
5 5 370 -2 428 -8z m-1924 -963 c1 -10 1 -22 0 -27 -1 -4 4 -14 10 -22 6 -8 9
-14 6 -14 -12 0 41 -101 74 -142 67 -83 206 -207 335 -298 108 -76 144 -100
148 -100 20 0 137 -95 211 -171 l90 -92 -55 29 c-142 73 -419 240 -473 284 -7
5 -48 37 -92 71 -44 34 -119 101 -166 149 l-87 89 -63 -46 c-35 -26 -69 -52
-75 -57 -6 -6 -26 -25 -45 -41 -82 -73 -146 -175 -153 -245 -7 -72 41 -192 98
-243 54 -50 186 -131 326 -201 74 -38 136 -67 138 -67 1 1 18 -6 38 -14 20 -8
41 -15 46 -15 6 0 24 -7 41 -15 32 -14 248 -81 289 -89 13 -2 46 -10 73 -16
28 -6 59 -13 70 -16 82 -16 124 -24 150 -28 74 -12 163 -25 203 -30 100 -14
121 -16 189 -21 l73 -6 86 -88 c47 -49 87 -91 88 -95 0 -3 -69 -57 -154 -120
-85 -63 -159 -118 -165 -123 -5 -5 -80 -60 -165 -123 -280 -208 -485 -360
-507 -378 -12 -9 -31 -24 -43 -32 -17 -12 -194 -144 -307 -228 -13 -9 -23 -20
-23 -25 0 -4 62 -5 138 -2 125 6 197 11 197 15 0 1 9 3 20 5 11 2 50 11 85 20
36 9 75 18 87 21 34 7 189 63 252 90 107 47 307 152 329 172 7 6 19 12 27 12
7 0 15 3 17 8 2 4 34 27 72 52 38 24 74 49 80 55 6 5 29 23 51 39 22 17 42 33
45 36 3 3 19 16 35 29 38 29 95 80 162 145 l53 50 50 -49 c27 -28 50 -54 50
-58 0 -7 -96 -153 -110 -167 -3 -3 -11 -17 -19 -32 -8 -15 -22 -37 -33 -47
-10 -11 -18 -23 -18 -25 0 -3 -22 -39 -50 -79 -39 -60 -48 -80 -44 -103 3 -16
7 -38 9 -49 2 -11 9 -42 15 -70 6 -27 13 -66 16 -85 3 -19 8 -38 10 -42 3 -4
7 -26 10 -50 4 -24 10 -51 15 -61 6 -9 8 -17 5 -17 -2 0 0 -17 5 -37 8 -35 37
-167 44 -204 2 -9 12 -59 24 -110 11 -52 22 -105 25 -119 3 -14 12 -59 20
-100 20 -102 34 -138 58 -151 16 -8 24 -7 36 5 16 15 12 39 -33 231 -2 11 -14
63 -25 115 -11 52 -24 112 -29 133 -5 20 -7 37 -4 37 2 0 1 6 -4 13 -4 6 -9
21 -10 32 -2 11 -10 47 -18 80 -7 33 -17 78 -20 100 -4 22 -11 51 -16 65 -5
14 -11 39 -13 55 -6 40 -15 83 -26 125 -6 19 -10 45 -10 58 0 20 200 331 237
370 7 7 13 16 13 20 0 4 4 13 9 21 7 12 34 -10 120 -97 61 -61 111 -115 111
-119 0 -5 -23 -35 -51 -68 -28 -33 -64 -76 -80 -95 -16 -19 -29 -40 -29 -47 0
-12 43 -140 60 -178 5 -11 34 -90 65 -175 31 -85 65 -177 75 -205 55 -145 109
-292 114 -311 8 -25 49 -49 70 -41 28 11 38 55 22 90 -8 18 -55 140 -106 272
-50 132 -95 249 -100 260 -20 46 -89 232 -94 255 -5 20 2 35 36 73 24 26 53
60 66 76 l22 30 116 -117 c63 -64 289 -292 501 -505 l385 -388 -34 -30 c-98
-89 -333 -259 -357 -259 -6 0 -11 -3 -11 -8 0 -4 -53 -34 -117 -66 -65 -32
-126 -62 -136 -67 -10 -6 -55 -23 -100 -40 -45 -16 -91 -33 -102 -38 -30 -13
-138 -45 -155 -46 -8 0 -19 -3 -25 -6 -5 -4 -28 -10 -50 -14 -22 -5 -47 -10
-55 -12 -8 -2 -31 -6 -50 -8 -19 -3 -42 -8 -51 -11 -17 -5 -29 -6 -144 -21
-123 -16 -584 -7 -655 12 -15 4 -66 14 -110 20 -73 12 -246 60 -345 97 -44 16
-84 31 -90 32 -106 29 -496 252 -607 348 -15 13 -37 31 -50 41 -69 53 -220
203 -304 300 -80 93 -202 264 -263 368 -68 114 -154 306 -203 449 -35 103 -33
96 -43 145 -11 50 -10 47 -18 65 -3 8 -8 29 -11 45 -3 17 -7 41 -10 55 -3 13
-8 40 -11 60 -3 20 -8 47 -10 60 -28 139 -27 568 0 740 3 14 6 36 8 50 2 14 7
39 11 55 3 17 8 39 10 50 23 112 65 253 112 375 32 82 87 203 94 210 4 3 12
20 19 38 8 17 18 32 23 32 5 0 7 4 4 9 -3 5 5 24 17 42 13 19 34 53 47 77 13
23 27 42 32 42 4 0 8 6 8 13 0 14 83 126 178 239 l64 77 79 -79 c43 -43 80
-87 80 -97z"/>
<path d="M5123 3055 c-86 -61 -117 -168 -71 -244 32 -52 40 -58 95 -76 143
-47 261 31 261 170 0 110 -60 168 -188 182 -40 4 -51 0 -97 -32z"/>
<path d="M5400 2743 c-8 -3 -27 -15 -43 -25 l-28 -20 20 -31 c10 -18 28 -48
39 -68 119 -214 144 -249 177 -249 27 0 53 31 48 59 -3 20 -9 33 -52 101 -8
14 -16 27 -16 30 0 3 -20 39 -44 80 -24 41 -51 87 -60 103 -16 28 -17 29 -41
20z"/>
<path d="M3382 2853 c-15 -22 -147 -274 -248 -473 -12 -23 -21 -83 -29 -190
-2 -25 -6 -72 -9 -105 -3 -33 -8 -82 -11 -110 -2 -27 -6 -68 -9 -90 -3 -22 -8
-69 -11 -105 -3 -36 -8 -83 -11 -105 -2 -22 -6 -71 -9 -110 -3 -60 -1 -71 16
-83 22 -16 55 -8 68 16 5 9 12 55 16 102 4 47 9 96 10 110 2 14 6 59 9 100 4
41 9 82 11 90 2 8 7 51 11 95 3 44 7 96 9 115 2 19 7 69 10 110 4 41 8 79 9
85 1 10 33 73 103 205 175 328 172 321 142 351 -27 27 -54 24 -77 -8z"/>
</g>
</svg>
